<svg xmlns="http://www.w3.org/2000/svg" width="190" height="48" fill="none" viewBox="0 0 190 48">
  <path fill="#fff" d="M58.75 32.377c-.182.491-.363.983-.397 1.486-.064.975.076 1.977.255 2.952.075.487.17.973.266 1.458.244 1.237.487 2.474.396 3.744-.115 1.47-.573 2.823-1.948 3.486-.751.364-1.706.572-2.508.455-1.465-.195-2.916-.598-4.304-1.092-1.362-.495-2.597-.325-3.934.13-6.952 2.38-14.07 3.55-21.416 2.757a52.576 52.576 0 01-10.39-2.172c-.343-.11-.687-.231-1.032-.353-.677-.24-1.357-.48-2.049-.635-.585-.13-1.26-.066-1.859.078-.649.155-1.29.345-1.93.535-.967.288-1.932.575-2.92.74-2.649.441-4.406-1.041-4.648-3.76-.14-1.651.127-3.251.599-4.812.33-1.08 1.273-1.652 2.126-1.391.917.286 1.49 1.352 1.311 2.393-.041.24-.084.48-.127.721-.129.722-.258 1.444-.344 2.166-.114.962.166 1.21 1.082.962 1.185-.325 2.369-.65 3.54-1.04 1.783-.585 3.476-.403 5.271.156a89.495 89.495 0 008.99 2.328c3.704.729 7.473.806 11.216.403a48.782 48.782 0 009.027-1.834c.583-.18 1.163-.376 1.743-.572.765-.26 1.532-.52 2.306-.741 1.274-.364 2.56-.156 3.82.208.413.122.824.248 1.234.373.768.235 1.534.469 2.306.68 1.095.313 1.35.13 1.247-1.001-.057-.62-.172-1.234-.288-1.85-.064-.34-.128-.681-.183-1.024a96.988 96.988 0 01-.496-3.278c-.162-1.262.207-2.425.577-3.588.095-.3.19-.598.276-.899.904-3.173 1.324-6.412.726-9.69-.319-1.73-.79-3.446-1.3-5.137-.508-1.716-.254-3.394.014-5.085.078-.493.166-.982.253-1.47.152-.852.303-1.702.409-2.562.102-.82-.153-1.04-.968-.845-.561.13-1.115.298-1.67.465-.438.132-.878.265-1.322.38-.179.049-.358.1-.537.152-.725.208-1.452.418-2.188.46-.84.038-1.719-.157-2.546-.378a115.196 115.196 0 01-3.126-.883c-1.772-.518-3.544-1.037-5.341-1.406-4.24-.871-8.518-1.105-12.847-.56-4.367.547-8.569 1.679-12.707 3.07-.624.208-1.362.273-1.999.143C8.8 6.862 7.208 6.42 5.63 5.94 3.974 5.432 3.68 5.653 3.974 7.42c.108.661.221 1.32.334 1.979.165.96.33 1.92.48 2.886.217 1.378 0 2.679-.47 4.005-.981 2.758-1.02 5.541.012 8.324a15.118 15.118 0 002.865 4.787c1.871 2.12 4.163 3.667 6.862 4.46.892.26 1.806.44 2.72.62.456.089.913.178 1.368.278a4.633 4.633 0 00-.07.025c-.103.037-.227.082-.35.092-3.35.39-6.621.156-9.69-1.405-3.094-1.573-5.284-4.005-6.748-7.192-1.642-3.577-1.63-7.244-.433-10.886.538-1.617.26-3.114-.02-4.624-.064-.348-.129-.696-.184-1.046a93.83 93.83 0 00-.078-.496C.335 7.754.097 6.277.498 4.768c.445-1.639 1.68-2.77 3.386-2.744 1.048.024 2.095.26 3.122.49l.252.056c.994.221 1.961.52 2.916.885.638.248 1.194.069 1.76-.113a9.56 9.56 0 01.443-.134c.908-.248 1.812-.51 2.715-.774 1.949-.566 3.896-1.133 5.88-1.542 4.646-.949 9.357-1.157 14.106-.546 4.126.533 8.136 1.444 12.045 2.862 1.159.429 2.203.299 3.31-.04.265-.082.53-.167.796-.252.822-.264 1.652-.53 2.49-.736 1.145-.286 2.317-.351 3.425.195 1.413.702 1.999 1.977 2.088 3.46.05 1.027-.09 2.068-.23 3.095-.076.566-.184 1.131-.291 1.698-.143.75-.285 1.5-.358 2.256-.07.678.09 1.378.245 2.059l.035.152c.156.675.33 1.347.505 2.02.182.702.364 1.406.527 2.116.063.26-.051.611-.204.832-.471.729-.471 1.223.204 1.743.369.286.458.624.483 1.054.14 2.99-.318 5.917-1.146 8.779-.072.247-.162.492-.253.738z"/>
  <path fill="#fff" d="M36.454 19.764l.305 2.185c.102.702.522 1.067 1.184 1.158l.05.007c.914.141 1.839.283 2.751.526-.292.048-.585.1-.878.152-.586.104-1.172.208-1.757.277-.891.117-1.235.403-1.375 1.314a72.964 72.964 0 00-.212 1.535c-.03.238-.061.476-.094.715-.013.143-.076.273-.255.403a8.893 8.893 0 01-.089-.52c-.04-.272-.076-.545-.113-.82-.07-.513-.14-1.03-.23-1.547-.115-.664-.522-.976-1.172-1.067-.62-.078-1.239-.18-1.859-.28l-.93-.15v-.116c.46-.072.914-.14 1.37-.208.455-.069.91-.137 1.368-.208.84-.13 1.133-.417 1.273-1.275.079-.515.145-1.024.212-1.535.03-.238.062-.476.094-.715a.582.582 0 01.255-.403l.016.083c.033.165.064.322.086.49zM42.835 18.477c-.04-.295-.079-.59-.13-.885-.063-.377-.293-.546-.675-.598-.34-.043-.674-.096-1.01-.15-.18-.028-.36-.057-.543-.084v-.065l1.528-.234c.471-.065.636-.221.713-.703.032-.208.057-.416.083-.624.025-.208.05-.416.082-.624a.338.338 0 01.14-.221c.026.104.051.208.064.312.051.416.102.82.166 1.222.063.39.292.599.662.65.522.079 1.044.157 1.566.3-.153.024-.306.05-.459.076a26.63 26.63 0 01-1.005.158c-.497.065-.688.221-.764.728-.051.416-.102.833-.166 1.249-.013.078-.038.143-.14.22a1.959 1.959 0 01-.047-.255l-.004-.03-.06-.442zM127.184 31.523c.712.372 1.59.558 2.633.558h2.112a.596.596 0 00.443-.186.62.62 0 00.183-.452v-1.646a.62.62 0 00-.183-.45.596.596 0 00-.443-.187h-1.799c-.626 0-1.069-.203-1.33-.61-.243-.408-.365-.974-.365-1.7v-5.76h3.26a.6.6 0 00.443-.186.656.656 0 00.182-.478v-1.514a.623.623 0 00-.182-.451.6.6 0 00-.443-.186h-3.26v-4.407a.622.622 0 00-.182-.451.6.6 0 00-.444-.186h-2.112a.63.63 0 00-.469.186.68.68 0 00-.157.451v4.407h-2.059a.6.6 0 00-.444.186.623.623 0 00-.182.451v1.514c0 .194.061.354.182.478a.6.6 0 00.444.185h2.059v6.027c0 1.097.174 2.018.522 2.761a3.531 3.531 0 001.591 1.646z"/>
  <path fill="#fff" fill-rule="evenodd" d="M77.433 31.895c.122.124.27.186.444.186h7.77c1.356 0 2.495-.23 3.416-.69.921-.479 1.617-1.133 2.086-1.965.47-.832.704-1.78.704-2.841 0-1.027-.26-1.912-.782-2.655-.522-.743-1.122-1.274-1.8-1.593.33-.177.661-.425.991-.743.348-.319.635-.726.86-1.221.244-.514.366-1.107.366-1.78 0-1.008-.217-1.893-.652-2.654-.417-.761-1.07-1.354-1.956-1.779-.886-.442-2.033-.664-3.441-.664h-7.562a.598.598 0 00-.444.186.653.653 0 00-.182.478v17.283c0 .177.06.328.182.452zm7.797-2.629h-4.355v-5.389h4.355c.921 0 1.625.257 2.112.77.504.513.756 1.16.756 1.938 0 .743-.243 1.38-.73 1.912-.487.513-1.2.77-2.138.77zm-.26-8.15h-4.095v-4.832h4.094c.921 0 1.608.212 2.06.637.47.425.704 1.01.704 1.752 0 .726-.235 1.319-.704 1.78-.452.442-1.139.663-2.06.663zM96.065 30.647c1.13 1.133 2.66 1.7 4.589 1.7.974 0 1.834-.125 2.582-.373.765-.265 1.399-.593 1.903-.982.504-.39.887-.788 1.148-1.195.278-.407.425-.752.443-1.035a.439.439 0 00-.157-.398.557.557 0 00-.417-.16h-2.242c-.191 0-.339.027-.444.08-.086.036-.208.16-.365.372a3.29 3.29 0 01-.443.478 3.231 3.231 0 01-.808.53c-.33.142-.739.213-1.226.213-.591 0-1.103-.16-1.538-.478a3.118 3.118 0 01-.965-1.248 5.073 5.073 0 01-.339-1.725v-.213h8.657a.628.628 0 00.652-.637v-.557c0-1.38-.243-2.593-.73-3.638-.487-1.061-1.208-1.885-2.164-2.469-.956-.601-2.139-.902-3.547-.902-1.269 0-2.372.265-3.311.796-.939.513-1.678 1.257-2.217 2.23-.521.956-.817 2.106-.886 3.452-.017.159-.026.38-.026.663 0 .266.009.487.026.664.087 2.089.695 3.7 1.825 4.832zm7.484-6.664h-5.763v-.08c0-.69.105-1.291.313-1.805.226-.53.556-.938.99-1.221.436-.3.957-.451 1.565-.451.609 0 1.13.15 1.565.451.434.283.765.69.991 1.221.226.514.339 1.115.339 1.806v.08z" clip-rule="evenodd"/>
  <path fill="#fff" d="M114.999 32.346c-1.043 0-1.938-.124-2.685-.372-.73-.247-1.33-.557-1.799-.929-.47-.372-.817-.743-1.043-1.115-.226-.372-.348-.681-.365-.93-.018-.194.034-.344.156-.45a.658.658 0 01.443-.186h2.06c.07 0 .131.009.183.026.052.018.121.071.208.16.226.194.461.398.704.61.261.213.565.398.913.558.348.141.782.212 1.304.212.678 0 1.243-.133 1.695-.398.469-.283.704-.681.704-1.195 0-.372-.105-.672-.313-.902-.192-.23-.557-.434-1.095-.611-.539-.195-1.304-.398-2.295-.61-.974-.23-1.782-.523-2.425-.877-.643-.354-1.121-.796-1.434-1.327-.313-.531-.469-1.15-.469-1.859 0-.69.199-1.345.599-1.964.417-.638 1.026-1.16 1.825-1.567.817-.407 1.826-.61 3.025-.61.939 0 1.756.124 2.451.371.696.23 1.269.523 1.721.877.469.354.826.716 1.069 1.088.244.354.374.664.391.93a.572.572 0 01-.156.477.617.617 0 01-.417.16h-1.93a.512.512 0 01-.235-.054 1.362 1.362 0 01-.208-.133 23.26 23.26 0 00-.626-.557 2.837 2.837 0 00-.834-.531c-.313-.142-.73-.212-1.252-.212-.66 0-1.165.15-1.512.451a1.341 1.341 0 00-.522 1.088c0 .301.078.567.235.797.174.212.513.416 1.017.61.504.195 1.269.399 2.294.611 1.165.213 2.086.531 2.764.956.696.407 1.182.885 1.461 1.434a3.6 3.6 0 01.443 1.778c0 .797-.235 1.514-.704 2.15-.452.638-1.13 1.142-2.034 1.514-.887.354-1.99.531-3.312.531z"/>
  <path fill="#fff" fill-rule="evenodd" d="M135.807 32.08a.596.596 0 01-.443-.185.62.62 0 01-.183-.452V14.16c0-.195.061-.354.183-.478a.596.596 0 01.443-.186h6.753c2.104 0 3.764.496 4.98 1.487 1.217.991 1.826 2.434 1.826 4.328 0 1.31-.322 2.398-.965 3.265-.626.867-1.469 1.496-2.529 1.885l3.807 6.77a.672.672 0 01.078.292c0 .16-.061.292-.183.398a.496.496 0 01-.365.16h-2.373c-.295 0-.521-.08-.677-.24a2.175 2.175 0 01-.366-.477l-3.363-6.292h-3.625v6.371c0 .177-.06.328-.182.452-.104.124-.252.186-.443.186h-2.373zm2.998-10.008h3.677c1.06 0 1.851-.24 2.373-.717.521-.496.782-1.186.782-2.071 0-.885-.261-1.575-.782-2.07-.504-.514-1.295-.77-2.373-.77h-3.677v5.628zM153.511 30.647c1.13 1.133 2.66 1.7 4.59 1.7.973 0 1.834-.125 2.581-.373.765-.265 1.399-.593 1.903-.982.505-.39.887-.788 1.148-1.195.278-.407.426-.752.443-1.035a.44.44 0 00-.156-.398.561.561 0 00-.418-.16h-2.242c-.191 0-.339.027-.443.08-.087.036-.209.16-.365.372a3.369 3.369 0 01-.444.478 3.231 3.231 0 01-.808.53c-.33.142-.739.213-1.225.213-.591 0-1.104-.16-1.539-.478a3.12 3.12 0 01-.965-1.248 5.102 5.102 0 01-.339-1.725v-.213h8.657a.632.632 0 00.652-.637v-.557c0-1.38-.243-2.593-.73-3.638-.487-1.061-1.208-1.885-2.164-2.469-.956-.601-2.138-.902-3.546-.902-1.269 0-2.373.265-3.312.796-.939.513-1.677 1.257-2.216 2.23-.522.956-.817 2.106-.887 3.452a6.61 6.61 0 00-.026.663c0 .266.009.487.026.664.087 2.089.696 3.7 1.825 4.832zm7.484-6.664h-5.763v-.08c0-.69.105-1.291.313-1.805.226-.53.557-.938.991-1.221.435-.3.956-.451 1.565-.451.608 0 1.13.15 1.564.451.435.283.765.69.991 1.221.226.514.339 1.115.339 1.806v.08z" clip-rule="evenodd"/>
  <path fill="#fff" d="M172.446 32.346c-1.043 0-1.939-.124-2.686-.372-.73-.247-1.33-.557-1.799-.929-.47-.372-.817-.743-1.043-1.115-.226-.372-.348-.681-.365-.93-.018-.194.035-.344.156-.45a.658.658 0 01.443-.186h2.06c.07 0 .131.009.183.026.052.018.122.071.209.16l.704.61c.26.213.564.398.912.558.348.141.782.212 1.304.212.678 0 1.243-.133 1.695-.398.469-.283.704-.681.704-1.195 0-.372-.105-.672-.313-.902-.191-.23-.556-.434-1.095-.611-.539-.195-1.304-.398-2.295-.61-.973-.23-1.782-.523-2.425-.877-.643-.354-1.121-.796-1.434-1.327-.313-.531-.469-1.15-.469-1.859 0-.69.2-1.345.599-1.964.418-.638 1.026-1.16 1.826-1.567.817-.407 1.825-.61 3.024-.61.939 0 1.756.124 2.451.371.696.23 1.269.523 1.721.877.47.354.826.716 1.069 1.088.244.354.374.664.392.93a.575.575 0 01-.157.477.617.617 0 01-.417.16h-1.93a.505.505 0 01-.234-.054 1.37 1.37 0 01-.209-.133 23.26 23.26 0 00-.626-.557 2.837 2.837 0 00-.834-.531c-.313-.142-.73-.212-1.252-.212-.66 0-1.164.15-1.512.451a1.341 1.341 0 00-.522 1.088c0 .301.079.567.235.797.174.212.513.416 1.017.61.504.195 1.269.399 2.295.611 1.164.213 2.086.531 2.764.956.695.407 1.182.885 1.46 1.434a3.6 3.6 0 01.443 1.778c0 .797-.235 1.514-.704 2.15-.452.638-1.13 1.142-2.034 1.514-.886.354-1.99.531-3.311.531zM184.63 31.523c.712.372 1.59.558 2.633.558h2.112a.6.6 0 00.444-.186.622.622 0 00.182-.452v-1.646a.622.622 0 00-.182-.45.6.6 0 00-.444-.187h-1.799c-.626 0-1.069-.203-1.33-.61-.243-.408-.365-.974-.365-1.7v-5.76h3.26a.598.598 0 00.443-.186.652.652 0 00.183-.478v-1.514a.62.62 0 00-.183-.451.598.598 0 00-.443-.186h-3.26v-4.407a.618.618 0 00-.182-.451.6.6 0 00-.443-.186h-2.113a.63.63 0 00-.469.186.679.679 0 00-.156.451v4.407h-2.06a.596.596 0 00-.443.186.62.62 0 00-.183.451v1.514c0 .194.061.354.183.478a.596.596 0 00.443.185h2.06v6.027c0 1.097.174 2.018.521 2.761a3.531 3.531 0 001.591 1.646z"/>
</svg>
